<?xml version="1.0" encoding="utf-8"?>
<!-- Generator: Adobe Illustrator 19.2.1, SVG Export Plug-In . SVG Version: 6.00 Build 0)  -->
<svg version="1.1" id="Layer_1" xmlns="http://www.w3.org/2000/svg" xmlns:xlink="http://www.w3.org/1999/xlink" x="0px" y="0px"
	 viewBox="0 0 40 25" style="enable-background:new 0 0 40 25;" xml:space="preserve">
<style type="text/css">
	.st0{fill:#FFFFFF;}
</style>
<path class="st0" d="M40,12.5c-4.2,4.2-8.3,8.3-12.5,12.5c-1.4-1.4-2.8-2.8-4.2-4.2c2.8-2.8,5.5-5.5,8.3-8.3
	c-2.8-2.8-5.5-5.5-8.3-8.3c1.4-1.4,2.8-2.8,4.2-4.2C27.5-0.1,40.1,12.6,40,12.5L40,12.5z"/>
<path class="st0" d="M0,12.5C-0.1,12.6,12.5-0.1,12.5,0c1.4,1.4,2.8,2.8,4.2,4.2c-2.8,2.8-5.5,5.5-8.3,8.3c2.8,2.8,5.5,5.5,8.3,8.3
	c-1.4,1.4-2.8,2.8-4.2,4.2C8.3,20.8,4.2,16.6,0,12.5L0,12.5z"/>
</svg>
